<svg width="50" height="50" viewBox="0 0 50 50" fill="none" xmlns="http://www.w3.org/2000/svg">
<rect width="50" height="50" fill="white"/>
<path d="M16.3373 46.7382L16.5078 46.9087L16.508 46.6676L16.5094 44.726C16.5097 44.2421 16.902 43.85 17.3859 43.85H27.9297C30.6773 43.85 32.9125 41.6148 32.9125 38.8672V32.1289C32.9125 31.6448 33.305 31.2523 33.7891 31.2523C34.2731 31.2523 34.6656 31.6448 34.6656 32.1289V38.8672C34.6656 42.5813 31.6438 45.6031 27.9297 45.6031H18.3617H18.2618L18.2617 45.7031L18.2594 49.024C18.2591 49.3784 18.0455 49.6979 17.7179 49.8334C17.6096 49.8782 17.4958 49.9 17.383 49.9C17.1548 49.9 16.9307 49.8109 16.763 49.6433L12.7522 45.6324L12.7229 45.6031H12.6814H6.83594C3.12183 45.6031 0.1 42.5813 0.1 38.8672V23.8281C0.1 20.114 3.12183 17.0922 6.83594 17.0922H16.6992C17.1833 17.0922 17.5758 17.4846 17.5758 17.9688C17.5758 18.4529 17.1833 18.8453 16.6992 18.8453H6.83594C4.08833 18.8453 1.85312 21.0805 1.85312 23.8281V38.8672C1.85312 41.6148 4.08833 43.85 6.83594 43.85H13.1815C13.5399 43.85 13.85 44.0656 13.9855 44.3767L13.993 44.394L14.0064 44.4074L16.3373 46.7382Z" fill="#CB8734" stroke="white" stroke-width="0.2"/>
<path d="M39.4793 27.8552L39.4387 27.8147L39.3833 27.8292C38.2197 28.1337 37.0192 28.2878 35.8061 28.2878H33.3345C25.5632 28.2878 19.2406 21.9653 19.2406 14.1939C19.2406 6.42261 25.5632 0.1 33.3346 0.1H35.8062C43.5774 0.1 49.9 6.42261 49.9 14.1939C49.9 16.4454 49.3848 18.5968 48.3685 20.589C47.4738 22.3431 46.1986 23.9135 44.6636 25.1566L44.6266 25.1866V25.2343V30.8843C44.6266 31.2388 44.413 31.5584 44.0856 31.694L44.0855 31.6941C43.9771 31.739 43.8632 31.7608 43.7502 31.7608C43.5221 31.7608 43.298 31.6718 43.1304 31.5043C43.1304 31.5043 43.1303 31.5043 43.1303 31.5043L39.4793 27.8552ZM42.7027 28.5984L42.8734 28.769V28.5276V24.7581C42.8734 24.4828 43.0028 24.2235 43.2226 24.0579C46.3518 21.7011 48.1469 18.1054 48.1469 14.1939C48.1469 7.38911 42.611 1.85312 35.8062 1.85312H33.3346C26.5297 1.85312 20.9937 7.38911 20.9937 14.1939C20.9937 20.9988 26.5296 26.5348 33.3346 26.5348H35.8062C37.0427 26.5348 38.2639 26.3522 39.4359 25.9921L39.4065 25.8965L39.4359 25.9921C39.5207 25.966 39.6074 25.9533 39.6933 25.9533C39.9222 25.9533 40.1461 26.0432 40.313 26.2099C40.313 26.2099 40.313 26.2099 40.313 26.2099L42.7027 28.5984Z" fill="#CB8734" stroke="white" stroke-width="0.2"/>
<path d="M32.0912 8.02706L32.0912 8.02707C31.2765 8.78755 30.8092 9.86284 30.8092 10.9768C30.8092 11.4609 31.2018 11.8534 31.6858 11.8534C32.1698 11.8534 32.5624 11.4609 32.5624 10.9768C32.5624 10.3378 32.8202 9.74487 33.2875 9.30869L33.2875 9.30869C33.7546 8.87274 34.3656 8.6569 35.0073 8.70117C35.0073 8.70117 35.0073 8.70117 35.0073 8.70117M32.0912 8.02706L37.0197 10.8201C36.9455 9.74322 36.0774 8.87516 35.0004 8.80094L35.0073 8.70117M32.0912 8.02706C32.9174 7.25575 33.9963 6.87437 35.1277 6.95207C37.1225 7.08955 38.7309 8.69796 38.8684 10.6926C39.0051 12.6774 37.717 14.4339 35.7968 14.8978L35.7203 14.9163V14.995V17.2631V17.2632C35.7204 17.7473 35.3279 18.1397 34.8438 18.1397C34.3598 18.1397 33.9672 17.7473 33.9672 17.2631V14.917C33.9672 14.0893 34.5331 13.3847 35.3449 13.2031C36.4516 12.9555 37.1978 11.9497 37.1194 10.8132M32.0912 8.02706L37.1194 10.8132M35.0073 8.70117C36.1341 8.77883 37.0418 9.68654 37.1194 10.8132M35.0073 8.70117L37.1194 10.8132" fill="#CB8734" stroke="white" stroke-width="0.2"/>
<path d="M34.8435 20.2494C35.0738 20.2494 35.3003 20.3433 35.4632 20.5062C35.6261 20.6692 35.7201 20.8957 35.7201 21.126C35.7201 21.3571 35.6262 21.5827 35.4631 21.7468C35.3004 21.9094 35.074 22.0025 34.8435 22.0025C34.613 22.0025 34.3865 21.9094 34.2238 21.7467C34.061 21.5838 33.9669 21.3573 33.9669 21.126C33.9669 20.8957 34.0609 20.6692 34.2238 20.5063C34.3867 20.3433 34.6132 20.2494 34.8435 20.2494Z" fill="#CB8734" stroke="white" stroke-width="0.2"/>
<path d="M6.25 30.3734H26.8555C27.3395 30.3734 27.732 30.7659 27.732 31.25C27.732 31.7341 27.3396 32.1266 26.8555 32.1266H6.25C5.76596 32.1266 5.37344 31.7341 5.37344 31.25C5.37344 30.7659 5.76596 30.3734 6.25 30.3734Z" fill="#CB8734" stroke="white" stroke-width="0.2"/>
<path d="M27.4751 36.099L27.4751 36.099C27.638 36.262 27.732 36.4885 27.732 36.7188C27.732 36.9499 27.6381 37.1755 27.4751 37.3385L27.4751 37.3385C27.3123 37.5014 27.0858 37.5953 26.8555 37.5953C26.6252 37.5953 26.3987 37.5014 26.2357 37.3385C26.0728 37.1756 25.9789 36.949 25.9789 36.7188C25.9789 36.4884 26.0728 36.2619 26.2357 36.099L26.2357 36.099C26.3987 35.9361 26.6252 35.8422 26.8555 35.8422C27.0858 35.8422 27.3123 35.9361 27.4751 36.099Z" fill="#CB8734" stroke="white" stroke-width="0.2"/>
<path d="M6.25 35.8422H23.0144C23.4984 35.8422 23.8909 36.2346 23.8909 36.7188C23.8909 37.2029 23.4985 37.5953 23.0144 37.5953H6.25C5.76596 37.5953 5.37344 37.2029 5.37344 36.7188C5.37344 36.2346 5.76596 35.8422 6.25 35.8422Z" fill="#CB8734" stroke="white" stroke-width="0.2"/>
<path d="M6.25 24.9047H20.5078C20.9918 24.9047 21.3844 25.2971 21.3844 25.7812C21.3844 26.2654 20.9919 26.6578 20.5078 26.6578H6.25C5.76596 26.6578 5.37344 26.2654 5.37344 25.7812C5.37344 25.2971 5.76596 24.9047 6.25 24.9047Z" fill="#CB8734" stroke="white" stroke-width="0.2"/>
</svg>
