<svg width="83" height="17" viewBox="0 0 83 17" fill="none" xmlns="http://www.w3.org/2000/svg">
<path d="M33.152 1.8H34.752V13H32.912V3.768L30.656 4.408L30.208 2.84L33.152 1.8ZM37.3931 14.6H36.5131L42.9131 0.2H43.7931L37.3931 14.6ZM48.7594 6.024C49.826 6.024 50.7274 6.344 51.4634 6.984C52.1994 7.61333 52.5674 8.488 52.5674 9.608C52.5674 10.728 52.1887 11.608 51.4314 12.248C50.674 12.888 49.746 13.208 48.6474 13.208C47.762 13.208 46.978 13.0053 46.2954 12.6C45.6127 12.184 45.1274 11.5867 44.8394 10.808L46.4234 9.896C46.722 10.9093 47.4634 11.416 48.6474 11.416C49.2767 11.416 49.778 11.256 50.1514 10.936C50.5354 10.6053 50.7274 10.1627 50.7274 9.608C50.7274 9.05333 50.5407 8.616 50.1674 8.296C49.794 7.976 49.298 7.816 48.6794 7.816H45.4154L45.8474 1.8H52.0874V3.528H47.5434L47.3514 6.024H48.7594Z" fill="#CB8734"/>
<path d="M82.5303 7.53033C82.8232 7.23744 82.8232 6.76256 82.5303 6.46967L77.7574 1.6967C77.4645 1.40381 76.9896 1.40381 76.6967 1.6967C76.4038 1.98959 76.4038 2.46447 76.6967 2.75736L80.9393 7L76.6967 11.2426C76.4038 11.5355 76.4038 12.0104 76.6967 12.3033C76.9896 12.5962 77.4645 12.5962 77.7574 12.3033L82.5303 7.53033ZM65 7.75L82 7.75L82 6.25L65 6.25L65 7.75Z" fill="#CB8734"/>
<path d="M0.469669 7.53033C0.176777 7.23744 0.176777 6.76256 0.469669 6.46967L5.24264 1.6967C5.53553 1.40381 6.01041 1.40381 6.3033 1.6967C6.59619 1.98959 6.59619 2.46447 6.3033 2.75736L2.06066 7L6.3033 11.2426C6.59619 11.5355 6.59619 12.0104 6.3033 12.3033C6.01041 12.5962 5.53553 12.5962 5.24264 12.3033L0.469669 7.53033ZM18 7.75L1 7.75L1 6.25L18 6.25L18 7.75Z" fill="#CB8734"/>
</svg>
